#!OML:ASF F:\VICON\USERDATA\INSTALL\rory3\rory3.ASF
:FULLY-SPECIFIED
:DEGREES
1590
root -3.0144 14.8894 21.7801 321.035 -15.5149 48.8447
lowerback -23.8095 -9.71617 4.74447
upperback -17.7489 -13.6079 3.18267
thorax -7.23584 -7.47382 -1.26593
lowerneck 2.50359 -21.464 -16.9017
upperneck -3.78168 -30.2052 23.0352
head 4.56824 -14.7536 6.97817
rclavicle 6.67916e-014 9.54166e-015
rhumerus -14.7582 -45.1641 18.716
rradius 35.3495
rwrist -2.89415
rhand -20.2791 -47.6373
rfingers 7.12502
rthumb -173.93 462.47
lclavicle 6.67916e-014 9.54166e-015
lhumerus -11.0581 11.9085 3.16523
lradius 23.9124
lwrist 36.7219
lhand -30.4341 -11.1969
lfingers 7.12502
lthumb -3.73669 18.7501
rfemur -37.4421 -3.05683 31.9292
rtibia 59.152
rfoot -5.96193 -21.9377
rtoes 34.8824
lfemur 1.43763 30.3064 -15.7201
ltibia 88.0889
lfoot 10.065 -4.00045
ltoes 1.56426
1591
root -3.05435 14.8638 21.7504 321.855 -16.9658 46.9327
lowerback -23.2679 -9.47181 6.6801
upperback -17.6437 -13.5403 3.94633
thorax -7.65045 -7.53389 -1.31659
lowerneck 2.92483 -21.3607 -17.0109
upperneck -3.99357 -30.1029 23.3346
head 4.49245 -14.7389 7.14508
rclavicle 7.95139e-014 -2.22639e-014
rhumerus -14.2791 -44.7519 18.398
rradius 35.2135
rwrist -3.27266
rhand -20.4552 -47.956
rfingers 7.12502
rthumb -174.1 462.146
lclavicle 7.95139e-014 -2.22639e-014
lhumerus -11.3042 11.3031 3.03729
lradius 24.0208
lwrist 37.1963
lhand -30.2854 -11.8505
lfingers 7.12502
lthumb -3.59307 18.0989
rfemur -36.5288 -1.63221 34.7608
rtibia 58.5411
rfoot -5.32073 -22.6968
rtoes 30.6104
lfemur 2.44282 31.1932 -11.3752
ltibia 88.6826
lfoot 9.45008 -5.2465
ltoes -0.316764
1592
root -3.02257 14.8835 21.7389 321.708 -12.8286 49.4352
lowerback -23.416 -10.326 2.697
upperback -17.9389 -14.0272 2.86681
thorax -7.24861 -7.52324 -0.564594
lowerneck 3.26822 -21.3107 -17.2922
upperneck -4.36611 -30.045 23.7859
head 4.44192 -14.7419 7.35353
rclavicle 9.54166e-014 6.67916e-014
rhumerus -13.7758 -44.5464 18.1424
rradius 35.0705
rwrist -3.54296
rhand -14.5142 -58.5804
rfingers 7.12502
rthumb -168.367 451.763
lclavicle 9.54166e-014 6.67916e-014
lhumerus -11.6916 11.2103 3.00948
lradius 24.2961
lwrist 37.2487
lhand -30.3216 -11.3848
lfingers 7.12502
lthumb -3.62805 18.564
rfemur -37.0709 -3.50676 29.7168
rtibia 59.1109
rfoot -5.14799 -21.6499
rtoes 29.1469
lfemur 2.49375 29.6516 -17.8612
ltibia 87.5782
lfoot 10.1235 -3.34183
ltoes 0.779551
1593
root -2.97171 14.8787 21.6503 323.914 -12.1011 48.8477
lowerback -24.2551 -10.322 3.12264
upperback -18.4932 -14.0913 3.08668
thorax -7.58236 -7.61322 -0.608892
lowerneck 3.62374 -21.3073 -17.6081
upperneck -4.66828 -30.0846 24.2666
head 4.43955 -14.7885 7.55145
rclavicle 1.59028e-015 6.36111e-015
rhumerus -13.4181 -44.2651 18.12
rradius 34.891
rwrist -3.61267
rhand -20.4533 -48.5985
rfingers 7.12502
rthumb -174.098 461.504
lclavicle 1.59028e-015 6.36111e-015
lhumerus -11.8837 11.9252 3.16817
lradius 24.4431
lwrist 36.4998
lhand -30.2712 -10.6519
lfingers 7.12502
lthumb -3.57933 19.2978
rfemur -38.8609 -3.60645 29.898
rtibia 58.663
rfoot -3.98366 -21.4794
rtoes 28.8921
lfemur -0.056553 29.3839 -19.0876
ltibia 88.0933
lfoot 10.5203 -2.73736
ltoes 0.813632
1594
root -3.01849 14.8736 21.6684 323.176 -11.3155 48.7496
lowerback -23.149 -10.5613 2.43411
upperback -18.2142 -14.2527 2.92704
thorax -7.63833 -7.60679 -0.312625
lowerneck 4.0047 -21.1906 -17.8176
upperneck -4.78615 -29.9954 24.6134
head 4.42392 -14.7753 7.73025
rclavicle 2.22639e-014 -5.08889e-014
rhumerus -13.1699 -43.7511 18.0264
rradius 34.8641
rwrist -3.68338
rhand -20.7157 -48.0343
rfingers 7.12502
rthumb -174.351 462.061
lclavicle 2.22639e-014 -5.08889e-014
lhumerus -11.8831 11.9763 3.16273
lradius 24.4264
lwrist 36.4222
lhand -30.2461 -10.8067
lfingers 7.12502
lthumb -3.55508 19.1434
rfemur -36.9751 -3.52585 29.4731
rtibia 58.3943
rfoot -3.76465 -21.8002
rtoes 28.0195
lfemur 2.69795 29.3302 -17.9105
ltibia 87.579
lfoot 10.1878 -2.9482
ltoes 0.911788
